<?xml version="1.0" encoding="UTF-8" standalone="no"?>
<svg
   xmlns:dc="http://purl.org/dc/elements/1.1/"
   xmlns:cc="http://creativecommons.org/ns#"
   xmlns:rdf="http://www.w3.org/1999/02/22-rdf-syntax-ns#"
   xmlns:svg="http://www.w3.org/2000/svg"
   xmlns="http://www.w3.org/2000/svg"
   xmlns:sodipodi="http://sodipodi.sourceforge.net/DTD/sodipodi-0.dtd"
   xmlns:inkscape="http://www.inkscape.org/namespaces/inkscape"
   version="1.1"
   id="Layer_1"
   x="0px"
   y="0px"
   width="150"
   height="150"
   viewBox="0 0 150 150"
   xml:space="preserve"
   class="ng-hide"
   inkscape:version="0.91 r13725"
   sodipodi:docname="avatar-placeholder-medium.svg"
   inkscape:export-filename="/Users/rodneyearl/GitHub/digitalYouth/app/assets/images/avatar-placeholder-medium.png"
   inkscape:export-xdpi="90"
   inkscape:export-ydpi="90"><metadata
     id="metadata3430"><rdf:RDF><cc:Work
         rdf:about=""><dc:format>image/svg+xml</dc:format><dc:type
           rdf:resource="http://purl.org/dc/dcmitype/StillImage" /><dc:title /></cc:Work></rdf:RDF></metadata><defs
     id="defs3428" /><sodipodi:namedview
     pagecolor="#ffffff"
     bordercolor="#666666"
     borderopacity="1"
     objecttolerance="10"
     gridtolerance="10"
     guidetolerance="10"
     inkscape:pageopacity="0"
     inkscape:pageshadow="2"
     inkscape:window-width="1193"
     inkscape:window-height="798"
     id="namedview3426"
     showgrid="false"
     fit-margin-top="0"
     fit-margin-left="0"
     fit-margin-right="0"
     fit-margin-bottom="0"
     inkscape:zoom="4.52"
     inkscape:cx="62.012984"
     inkscape:cy="90.473522"
     inkscape:window-x="0"
     inkscape:window-y="0"
     inkscape:window-maximized="0"
     inkscape:current-layer="Layer_1" /><style
     type="text/css"
     id="style3412">.st0 {fill:#D2D2D2;} .st1 {opacity:0.2;} .st2 {fill:#0C0D0D;} .st3 {fill:#666E6E;}</style><ellipse
     class="st0"
     cx="75"
     cy="75"
     id="circle3414"
     rx="73.863632"
     ry="73.86364"
     style="fill:#d2d2d2" /><g
     class="st1"
     id="g3416"
     transform="matrix(1.1363636,0,0,1.1363636,-1.1363636,-1.1363636)"
     style="opacity:0.2"><path
       class="st2"
       d="m 67,2 c 35.84113,0 65,29.158935 65,65 0,35.84113 -29.15887,65 -65,65 C 31.158874,132 2,102.84113 2,67 2,31.158935 31.158874,2 67,2 M 67,1 C 30.549194,1 1,30.549194 1,67 c 0,36.45081 29.549194,66 66,66 36.45081,0 66,-29.54919 66,-66 C 133,30.549194 103.45081,1 67,1 l 0,0 z"
       id="path3418"
       inkscape:connector-curvature="0"
       style="fill:#0c0d0d" /></g><g
     id="g3420"
     transform="matrix(1.1363636,0,0,1.1363636,-1.1363636,-1.1363636)"><path
       class="st3"
       d="m 65.920509,66.340797 2.159104,0 C 82.882408,66.7612 99.008308,72.402405 97.362808,86.689003 L 95.744713,100.0108 c -0.8433,6.8144 -5.207504,7.8276 -13.972206,7.8652 l -29.541493,0 c -8.764602,-0.0376 -13.130905,-1.0508 -13.973602,-7.8652 L 36.63681,86.689003 C 34.994209,72.402405 51.120209,66.7612 65.920509,66.340797 Z"
       id="path3422"
       inkscape:connector-curvature="0"
       style="fill:#666e6e" /><path
       class="st3"
       d="m 49.431709,43.934101 c 0,-9.818901 7.989201,-17.810101 17.807602,-17.810101 9.8218,0 17.809601,7.9912 17.809601,17.810101 0,9.818802 -7.987801,17.807098 -17.809601,17.807098 -9.818401,0 -17.807602,-7.988296 -17.807602,-17.807098 z"
       id="path3424"
       inkscape:connector-curvature="0"
       style="fill:#666e6e" /></g></svg>