<?xml version="1.0" encoding="UTF-8" standalone="no"?>
<svg
   xmlns:dc="http://purl.org/dc/elements/1.1/"
   xmlns:cc="http://creativecommons.org/ns#"
   xmlns:rdf="http://www.w3.org/1999/02/22-rdf-syntax-ns#"
   xmlns:svg="http://www.w3.org/2000/svg"
   xmlns="http://www.w3.org/2000/svg"
   xmlns:sodipodi="http://sodipodi.sourceforge.net/DTD/sodipodi-0.dtd"
   xmlns:inkscape="http://www.inkscape.org/namespaces/inkscape"
   version="1.1"
   id="Layer_1"
   x="0px"
   y="0px"
   width="20"
   height="20"
   viewBox="0 0 20 20"
   xml:space="preserve"
   class="ng-hide"
   sodipodi:docname="avatar-placeholder-menu.svg"
   inkscape:version="0.91 r13725"
   inkscape:export-filename="/Users/rodneyearl/GitHub/digitalYouth/app/assets/images/avatar-placeholder-menu.png"
   inkscape:export-xdpi="90"
   inkscape:export-ydpi="90"><metadata
     id="metadata3699"><rdf:RDF><cc:Work
         rdf:about=""><dc:format>image/svg+xml</dc:format><dc:type
           rdf:resource="http://purl.org/dc/dcmitype/StillImage" /><dc:title></dc:title></cc:Work></rdf:RDF></metadata><defs
     id="defs3697" /><sodipodi:namedview
     pagecolor="#ffffff"
     bordercolor="#666666"
     borderopacity="1"
     objecttolerance="10"
     gridtolerance="10"
     guidetolerance="10"
     inkscape:pageopacity="0"
     inkscape:pageshadow="2"
     inkscape:window-width="1440"
     inkscape:window-height="809"
     id="namedview3695"
     showgrid="false"
     inkscape:zoom="4.0298507"
     inkscape:cx="-1.2481484"
     inkscape:cy="66.014332"
     inkscape:window-x="0"
     inkscape:window-y="1"
     inkscape:window-maximized="1"
     inkscape:current-layer="Layer_1"
     fit-margin-top="0"
     fit-margin-left="0"
     fit-margin-right="0"
     fit-margin-bottom="0" /><style
     type="text/css"
     id="style3680">.st0 {fill:#D2D2D2;} .st1 {opacity:0.2;} .st2 {fill:#0C0D0D;} .st3 {fill:#666E6E;}</style><circle
     class="st0"
     cx="10"
     cy="10"
     id="circle3682"
     style="fill:#d2d2d2;stroke-width:0.37878788"
     clip-path="none"
     r="9.848484" /><g
     class="st1"
     id="g3686"
     style="opacity:0.2"
     transform="matrix(0.15151515,0,0,0.15151515,-0.15151515,-0.15151515)"
     clip-path="none"><path
       class="st2"
       d="m 67,2 c 35.84113,0 65,29.158935 65,65 0,35.84113 -29.15887,65 -65,65 C 31.158874,132 2,102.84113 2,67 2,31.158935 31.158874,2 67,2 M 67,1 C 30.549194,1 1,30.549194 1,67 c 0,36.45081 29.549194,66 66,66 36.45081,0 66,-29.54919 66,-66 C 133,30.549194 103.45081,1 67,1 Z"
       id="path3684"
       inkscape:connector-curvature="0"
       style="fill:#0c0d0d" /></g><g
     id="g3692"
     transform="matrix(0.15151515,0,0,0.15151515,-0.15151515,-0.15151515)"><path
       class="st3"
       d="m 65.920509,66.340797 2.159104,0 C 82.882408,66.7612 99.008308,72.402405 97.362808,86.689003 L 95.744713,100.0108 c -0.8433,6.8144 -5.207504,7.8276 -13.972206,7.8652 l -29.541493,0 c -8.764602,-0.0376 -13.130905,-1.0508 -13.973602,-7.8652 L 36.63681,86.689003 C 34.994209,72.402405 51.120209,66.7612 65.920509,66.340797 Z"
       id="path3688"
       inkscape:connector-curvature="0"
       style="fill:#666e6e" /><path
       class="st3"
       d="m 49.431709,43.934101 c 0,-9.818901 7.989201,-17.810101 17.807602,-17.810101 9.8218,0 17.809601,7.9912 17.809601,17.810101 0,9.818802 -7.987801,17.807098 -17.809601,17.807098 -9.818401,0 -17.807602,-7.988296 -17.807602,-17.807098 z"
       id="path3690"
       inkscape:connector-curvature="0"
       style="fill:#666e6e" /></g></svg>